Bitcount_Grid_Single_Italic.ufo
<glyph name="px.ix0.iy-1" format="2">
  <advance width="600"/>
  <outline>
    <contour>
      <point x="94" y="-50" type="qcurve" smooth="yes"/>
      <point x="94" y="-71"/>
      <point x="65" y="-100"/>
      <point x="44" y="-100" type="qcurve" smooth="yes"/>
      <point x="23" y="-100"/>
      <point x="-6" y="-71"/>
      <point x="-6" y="-50" type="qcurve" smooth="yes"/>
      <point x="-6" y="-29"/>
      <point x="23" y="0"/>
      <point x="44" y="0" type="qcurve" smooth="yes"/>
      <point x="65" y="0"/>
      <point x="94" y="-29"/>
    </contour>
  </outline>
</glyph>
<glyph name="px.ix0.iy0" format="2">
  <advance width="600"/>
  <outline>
    <contour>
      <point x="108" y="50" type="qcurve" smooth="yes"/>
      <point x="108" y="29"/>
      <point x="79" y="0"/>
      <point x="58" y="0" type="qcurve" smooth="yes"/>
      <point x="37" y="0"/>
      <point x="8" y="29"/>
      <point x="8" y="50" type="qcurve" smooth="yes"/>
      <point x="8" y="71"/>
      <point x="37" y="100"/>
      <point x="58" y="100" type="qcurve" smooth="yes"/>
      <point x="79" y="100"/>
      <point x="108" y="71"/>
    </contour>
  </outline>
</glyph>
<glyph name="px.ix0.iy1" format="2">
  <advance width="600"/>
  <outline>
    <contour>
      <point x="122" y="150" type="qcurve" smooth="yes"/>
      <point x="122" y="129"/>
      <point x="93" y="100"/>
      <point x="72" y="100" type="qcurve" smooth="yes"/>
      <point x="51" y="100"/>
      <point x="22" y="129"/>
      <point x="22" y="150" type="qcurve" smooth="yes"/>
      <point x="22" y="171"/>
      <point x="51" y="200"/>
      <point x="72" y="200" type="qcurve" smooth="yes"/>
      <point x="93" y="200"/>
      <point x="122" y="171"/>
    </contour>
  </outline>
</glyph>
<glyph name="px.ix0.iy2" format="2">
  <advance width="600"/>
  <outline>
    <contour>
      <point x="136" y="250" type="qcurve" smooth="yes"/>
      <point x="136" y="229"/>
      <point x="107" y="200"/>
      <point x="86" y="200" type="qcurve" smooth="yes"/>
      <point x="65" y="200"/>
      <point x="36" y="229"/>
      <point x="36" y="250" type="qcurve" smooth="yes"/>
      <point x="36" y="271"/>
      <point x="65" y="300"/>
      <point x="86" y="300" type="qcurve" smooth="yes"/>
      <point x="107" y="300"/>
      <point x="136" y="271"/>
    </contour>
  </outline>
</glyph>
<glyph name="px.ix0.iy3" format="2">
  <advance width="600"/>
  <outline>
    <contour>
      <point x="150" y="350" type="qcurve" smooth="yes"/>
      <point x="150" y="329"/>
      <point x="121" y="300"/>
      <point x="100" y="300" type="qcurve" smooth="yes"/>
      <point x="79" y="300"/>
      <point x="50" y="329"/>
      <point x="50" y="350" type="qcurve" smooth="yes"/>
      <point x="50" y="371"/>
      <point x="79" y="400"/>
      <point x="100" y="400" type="qcurve" smooth="yes"/>
      <point x="121" y="400"/>
      <point x="150" y="371"/>
    </contour>
  </outline>
</glyph>
<glyph name="px.ix0.iy4" format="2">
  <advance width="600"/>
  <outline>
    <contour>
      <point x="164" y="450" type="qcurve" smooth="yes"/>
      <point x="164" y="429"/>
      <point x="135" y="400"/>
      <point x="114" y="400" type="qcurve" smooth="yes"/>
      <point x="93" y="400"/>
      <point x="64" y="429"/>
      <point x="64" y="450" type="qcurve" smooth="yes"/>
      <point x="64" y="471"/>
      <point x="93" y="500"/>
      <point x="114" y="500" type="qcurve" smooth="yes"/>
      <point x="135" y="500"/>
      <point x="164" y="471"/>
    </contour>
  </outline>
</glyph>
<glyph name="px.ix0.iy5" format="2">
  <advance width="600"/>
  <outline>
    <contour>
      <point x="178" y="550" type="qcurve" smooth="yes"/>
      <point x="178" y="529"/>
      <point x="149" y="500"/>
      <point x="128" y="500" type="qcurve" smooth="yes"/>
      <point x="107" y="500"/>
      <point x="78" y="529"/>
      <point x="78" y="550" type="qcurve" smooth="yes"/>
      <point x="78" y="571"/>
      <point x="107" y="600"/>
      <point x="128" y="600" type="qcurve" smooth="yes"/>
      <point x="149" y="600"/>
      <point x="178" y="571"/>
    </contour>
  </outline>
</glyph>
<glyph name="px.ix0.iy6" format="2">
  <advance width="600"/>
  <outline>
    <contour>
      <point x="192" y="650" type="qcurve" smooth="yes"/>
      <point x="192" y="629"/>
      <point x="163" y="600"/>
      <point x="142" y="600" type="qcurve" smooth="yes"/>
      <point x="121" y="600"/>
      <point x="92" y="629"/>
      <point x="92" y="650" type="qcurve" smooth="yes"/>
      <point x="92" y="671"/>
      <point x="121" y="700"/>
      <point x="142" y="700" type="qcurve" smooth="yes"/>
      <point x="163" y="700"/>
      <point x="192" y="671"/>
    </contour>
  </outline>
</glyph>
<glyph name="px.ix1.iy-1" format="2">
  <advance width="600"/>
  <outline>
    <contour>
      <point x="194" y="-50" type="qcurve" smooth="yes"/>
      <point x="194" y="-71"/>
      <point x="165" y="-100"/>
      <point x="144" y="-100" type="qcurve" smooth="yes"/>
      <point x="123" y="-100"/>
      <point x="94" y="-71"/>
      <point x="94" y="-50" type="qcurve" smooth="yes"/>
      <point x="94" y="-29"/>
      <point x="123" y="0"/>
      <point x="144" y="0" type="qcurve" smooth="yes"/>
      <point x="165" y="0"/>
      <point x="194" y="-29"/>
    </contour>
  </outline>
</glyph>
<glyph name="px.ix1.iy0" format="2">
  <advance width="600"/>
  <outline>
    <contour>
      <point x="208" y="50" type="qcurve" smooth="yes"/>
      <point x="208" y="29"/>
      <point x="179" y="0"/>
      <point x="158" y="0" type="qcurve" smooth="yes"/>
      <point x="137" y="0"/>
      <point x="108" y="29"/>
      <point x="108" y="50" type="qcurve" smooth="yes"/>
      <point x="108" y="71"/>
      <point x="137" y="100"/>
      <point x="158" y="100" type="qcurve" smooth="yes"/>
      <point x="179" y="100"/>
      <point x="208" y="71"/>
    </contour>
  </outline>
</glyph>
<glyph name="px.ix1.iy1" format="2">
  <advance width="600"/>
  <outline>
    <contour>
      <point x="222" y="150" type="qcurve" smooth="yes"/>
      <point x="222" y="129"/>
      <point x="193" y="100"/>
      <point x="172" y="100" type="qcurve" smooth="yes"/>
      <point x="151" y="100"/>
      <point x="122" y="129"/>
      <point x="122" y="150" type="qcurve" smooth="yes"/>
      <point x="122" y="171"/>
      <point x="151" y="200"/>
      <point x="172" y="200" type="qcurve" smooth="yes"/>
      <point x="193" y="200"/>
      <point x="222" y="171"/>
    </contour>
  </outline>
</glyph>
<glyph name="px.ix1.iy2" format="2">
  <advance width="600"/>
  <outline>
    <contour>
      <point x="236" y="250" type="qcurve" smooth="yes"/>
      <point x="236" y="229"/>
      <point x="207" y="200"/>
      <point x="186" y="200" type="qcurve" smooth="yes"/>
      <point x="165" y="200"/>
      <point x="136" y="229"/>
      <point x="136" y="250" type="qcurve" smooth="yes"/>
      <point x="136" y="271"/>
      <point x="165" y="300"/>
      <point x="186" y="300" type="qcurve" smooth="yes"/>
      <point x="207" y="300"/>
      <point x="236" y="271"/>
    </contour>
  </outline>
</glyph>
<glyph name="px.ix1.iy3" format="2">
  <advance width="600"/>
  <outline>
    <contour>
      <point x="250" y="350" type="qcurve" smooth="yes"/>
      <point x="250" y="329"/>
      <point x="221" y="300"/>
      <point x="200" y="300" type="qcurve" smooth="yes"/>
      <point x="179" y="300"/>
      <point x="150" y="329"/>
      <point x="150" y="350" type="qcurve" smooth="yes"/>
      <point x="150" y="371"/>
      <point x="179" y="400"/>
      <point x="200" y="400" type="qcurve" smooth="yes"/>
      <point x="221" y="400"/>
      <point x="250" y="371"/>
    </contour>
  </outline>
</glyph>
<glyph name="px.ix1.iy4" format="2">
  <advance width="600"/>
  <outline>
    <contour>
      <point x="264" y="450" type="qcurve" smooth="yes"/>
      <point x="264" y="429"/>
      <point x="235" y="400"/>
      <point x="214" y="400" type="qcurve" smooth="yes"/>
      <point x="193" y="400"/>
      <point x="164" y="429"/>
      <point x="164" y="450" type="qcurve" smooth="yes"/>
      <point x="164" y="471"/>
      <point x="193" y="500"/>
      <point x="214" y="500" type="qcurve" smooth="yes"/>
      <point x="235" y="500"/>
      <point x="264" y="471"/>
    </contour>
  </outline>
</glyph>
<glyph name="px.ix1.iy5" format="2">
  <advance width="600"/>
  <outline>
    <contour>
      <point x="278" y="550" type="qcurve" smooth="yes"/>
      <point x="278" y="529"/>
      <point x="249" y="500"/>
      <point x="228" y="500" type="qcurve" smooth="yes"/>
      <point x="207" y="500"/>
      <point x="178" y="529"/>
      <point x="178" y="550" type="qcurve" smooth="yes"/>
      <point x="178" y="571"/>
      <point x="207" y="600"/>
      <point x="228" y="600" type="qcurve" smooth="yes"/>
      <point x="249" y="600"/>
      <point x="278" y="571"/>
    </contour>
  </outline>
</glyph>
<glyph name="px.ix1.iy6" format="2">
  <advance width="600"/>
  <outline>
    <contour>
      <point x="292" y="650" type="qcurve" smooth="yes"/>
      <point x="292" y="629"/>
      <point x="263" y="600"/>
      <point x="242" y="600" type="qcurve" smooth="yes"/>
      <point x="221" y="600"/>
      <point x="192" y="629"/>
      <point x="192" y="650" type="qcurve" smooth="yes"/>
      <point x="192" y="671"/>
      <point x="221" y="700"/>
      <point x="242" y="700" type="qcurve" smooth="yes"/>
      <point x="263" y="700"/>
      <point x="292" y="671"/>
    </contour>
  </outline>
</glyph>
<glyph name="px.ix2.iy-1" format="2">
  <advance width="600"/>
  <outline>
    <contour>
      <point x="294" y="-50" type="qcurve" smooth="yes"/>
      <point x="294" y="-71"/>
      <point x="265" y="-100"/>
      <point x="244" y="-100" type="qcurve" smooth="yes"/>
      <point x="223" y="-100"/>
      <point x="194" y="-71"/>
      <point x="194" y="-50" type="qcurve" smooth="yes"/>
      <point x="194" y="-29"/>
      <point x="223" y="0"/>
      <point x="244" y="0" type="qcurve" smooth="yes"/>
      <point x="265" y="0"/>
      <point x="294" y="-29"/>
    </contour>
  </outline>
</glyph>
<glyph name="px.ix2.iy0" format="2">
  <advance width="600"/>
  <outline>
    <contour>
      <point x="308" y="50" type="qcurve" smooth="yes"/>
      <point x="308" y="29"/>
      <point x="279" y="0"/>
      <point x="258" y="0" type="qcurve" smooth="yes"/>
      <point x="237" y="0"/>
      <point x="208" y="29"/>
      <point x="208" y="50" type="qcurve" smooth="yes"/>
      <point x="208" y="71"/>
      <point x="237" y="100"/>
      <point x="258" y="100" type="qcurve" smooth="yes"/>
      <point x="279" y="100"/>
      <point x="308" y="71"/>
    </contour>
  </outline>
</glyph>
<glyph name="px.ix2.iy1" format="2">
  <advance width="600"/>
  <outline>
    <contour>
      <point x="322" y="150" type="qcurve" smooth="yes"/>
      <point x="322" y="129"/>
      <point x="293" y="100"/>
      <point x="272" y="100" type="qcurve" smooth="yes"/>
      <point x="251" y="100"/>
      <point x="222" y="129"/>
      <point x="222" y="150" type="qcurve" smooth="yes"/>
      <point x="222" y="171"/>
      <point x="251" y="200"/>
      <point x="272" y="200" type="qcurve" smooth="yes"/>
      <point x="293" y="200"/>
      <point x="322" y="171"/>
    </contour>
  </outline>
</glyph>
<glyph name="px.ix2.iy2" format="2">
  <advance width="600"/>
  <outline>
    <contour>
      <point x="336" y="250" type="qcurve" smooth="yes"/>
      <point x="336" y="229"/>
      <point x="307" y="200"/>
      <point x="286" y="200" type="qcurve" smooth="yes"/>
      <point x="265" y="200"/>
      <point x="236" y="229"/>
      <point x="236" y="250" type="qcurve" smooth="yes"/>
      <point x="236" y="271"/>
      <point x="265" y="300"/>
      <point x="286" y="300" type="qcurve" smooth="yes"/>
      <point x="307" y="300"/>
      <point x="336" y="271"/>
    </contour>
  </outline>
</glyph>
<glyph name="px.ix2.iy3" format="2">
  <advance width="600"/>
  <outline>
    <contour>
      <point x="350" y="350" type="qcurve" smooth="yes"/>
      <point x="350" y="329"/>
      <point x="321" y="300"/>
      <point x="300" y="300" type="qcurve" smooth="yes"/>
      <point x="279" y="300"/>
      <point x="250" y="329"/>
      <point x="250" y="350" type="qcurve" smooth="yes"/>
      <point x="250" y="371"/>
      <point x="279" y="400"/>
      <point x="300" y="400" type="qcurve" smooth="yes"/>
      <point x="321" y="400"/>
      <point x="350" y="371"/>
    </contour>
  </outline>
</glyph>
<glyph name="px.ix2.iy4" format="2">
  <advance width="600"/>
  <outline>
    <contour>
      <point x="364" y="450" type="qcurve" smooth="yes"/>
      <point x="364" y="429"/>
      <point x="335" y="400"/>
      <point x="314" y="400" type="qcurve" smooth="yes"/>
      <point x="293" y="400"/>
      <point x="264" y="429"/>
      <point x="264" y="450" type="qcurve" smooth="yes"/>
      <point x="264" y="471"/>
      <point x="293" y="500"/>
      <point x="314" y="500" type="qcurve" smooth="yes"/>
      <point x="335" y="500"/>
      <point x="364" y="471"/>
    </contour>
  </outline>
</glyph>
<glyph name="px.ix2.iy6" format="2">
  <advance width="600"/>
  <outline>
    <contour>
      <point x="392" y="650" type="qcurve" smooth="yes"/>
      <point x="392" y="629"/>
      <point x="363" y="600"/>
      <point x="342" y="600" type="qcurve" smooth="yes"/>
      <point x="321" y="600"/>
      <point x="292" y="629"/>
      <point x="292" y="650" type="qcurve" smooth="yes"/>
      <point x="292" y="671"/>
      <point x="321" y="700"/>
      <point x="342" y="700" type="qcurve" smooth="yes"/>
      <point x="363" y="700"/>
      <point x="392" y="671"/>
    </contour>
  </outline>
</glyph>
<glyph name="px.ix3.iy-1" format="2">
  <advance width="600"/>
  <outline>
    <contour>
      <point x="394" y="-50" type="qcurve" smooth="yes"/>
      <point x="394" y="-71"/>
      <point x="365" y="-100"/>
      <point x="344" y="-100" type="qcurve" smooth="yes"/>
      <point x="323" y="-100"/>
      <point x="294" y="-71"/>
      <point x="294" y="-50" type="qcurve" smooth="yes"/>
      <point x="294" y="-29"/>
      <point x="323" y="0"/>
      <point x="344" y="0" type="qcurve" smooth="yes"/>
      <point x="365" y="0"/>
      <point x="394" y="-29"/>
    </contour>
  </outline>
</glyph>
<glyph name="px.ix3.iy0" format="2">
  <advance width="600"/>
  <outline>
    <contour>
      <point x="408" y="50" type="qcurve" smooth="yes"/>
      <point x="408" y="29"/>
      <point x="379" y="0"/>
      <point x="358" y="0" type="qcurve" smooth="yes"/>
      <point x="337" y="0"/>
      <point x="308" y="29"/>
      <point x="308" y="50" type="qcurve" smooth="yes"/>
      <point x="308" y="71"/>
      <point x="337" y="100"/>
      <point x="358" y="100" type="qcurve" smooth="yes"/>
      <point x="379" y="100"/>
      <point x="408" y="71"/>
    </contour>
  </outline>
</glyph>
<glyph name="px.ix3.iy1" format="2">
  <advance width="600"/>
  <outline>
    <contour>
      <point x="422" y="150" type="qcurve" smooth="yes"/>
      <point x="422" y="129"/>
      <point x="393" y="100"/>
      <point x="372" y="100" type="qcurve" smooth="yes"/>
      <point x="351" y="100"/>
      <point x="322" y="129"/>
      <point x="322" y="150" type="qcurve" smooth="yes"/>
      <point x="322" y="171"/>
      <point x="351" y="200"/>
      <point x="372" y="200" type="qcurve" smooth="yes"/>
      <point x="393" y="200"/>
      <point x="422" y="171"/>
    </contour>
  </outline>
</glyph>
<glyph name="px.ix3.iy2" format="2">
  <advance width="600"/>
  <outline>
    <contour>
      <point x="436" y="250" type="qcurve" smooth="yes"/>
      <point x="436" y="229"/>
      <point x="407" y="200"/>
      <point x="386" y="200" type="qcurve" smooth="yes"/>
      <point x="365" y="200"/>
      <point x="336" y="229"/>
      <point x="336" y="250" type="qcurve" smooth="yes"/>
      <point x="336" y="271"/>
      <point x="365" y="300"/>
      <point x="386" y="300" type="qcurve" smooth="yes"/>
      <point x="407" y="300"/>
      <point x="436" y="271"/>
    </contour>
  </outline>
</glyph>
<glyph name="px.ix3.iy3" format="2">
  <advance width="600"/>
  <outline>
    <contour>
      <point x="450" y="350" type="qcurve" smooth="yes"/>
      <point x="450" y="329"/>
      <point x="421" y="300"/>
      <point x="400" y="300" type="qcurve" smooth="yes"/>
      <point x="379" y="300"/>
      <point x="350" y="329"/>
      <point x="350" y="350" type="qcurve" smooth="yes"/>
      <point x="350" y="371"/>
      <point x="379" y="400"/>
      <point x="400" y="400" type="qcurve" smooth="yes"/>
      <point x="421" y="400"/>
      <point x="450" y="371"/>
    </contour>
  </outline>
</glyph>
<glyph name="px.ix3.iy4" format="2">
  <advance width="600"/>
  <outline>
    <contour>
      <point x="464" y="450" type="qcurve" smooth="yes"/>
      <point x="464" y="429"/>
      <point x="435" y="400"/>
      <point x="414" y="400" type="qcurve" smooth="yes"/>
      <point x="393" y="400"/>
      <point x="364" y="429"/>
      <point x="364" y="450" type="qcurve" smooth="yes"/>
      <point x="364" y="471"/>
      <point x="393" y="500"/>
      <point x="414" y="500" type="qcurve" smooth="yes"/>
      <point x="435" y="500"/>
      <point x="464" y="471"/>
    </contour>
  </outline>
</glyph>
<glyph name="px.ix3.iy5" format="2">
  <advance width="600"/>
  <outline>
    <contour>
      <point x="478" y="550" type="qcurve" smooth="yes"/>
      <point x="478" y="529"/>
      <point x="449" y="500"/>
      <point x="428" y="500" type="qcurve" smooth="yes"/>
      <point x="407" y="500"/>
      <point x="378" y="529"/>
      <point x="378" y="550" type="qcurve" smooth="yes"/>
      <point x="378" y="571"/>
      <point x="407" y="600"/>
      <point x="428" y="600" type="qcurve" smooth="yes"/>
      <point x="449" y="600"/>
      <point x="478" y="571"/>
    </contour>
  </outline>
</glyph>
<glyph name="px.ix3.iy6" format="2">
  <advance width="600"/>
  <outline>
    <contour>
      <point x="492" y="650" type="qcurve" smooth="yes"/>
      <point x="492" y="629"/>
      <point x="463" y="600"/>
      <point x="442" y="600" type="qcurve" smooth="yes"/>
      <point x="421" y="600"/>
      <point x="392" y="629"/>
      <point x="392" y="650" type="qcurve" smooth="yes"/>
      <point x="392" y="671"/>
      <point x="421" y="700"/>
      <point x="442" y="700" type="qcurve" smooth="yes"/>
      <point x="463" y="700"/>
      <point x="492" y="671"/>
    </contour>
  </outline>
</glyph>
<glyph name="px.ix4.iy-1" format="2">
  <advance width="600"/>
  <outline>
    <contour>
      <point x="494" y="-50" type="qcurve" smooth="yes"/>
      <point x="494" y="-71"/>
      <point x="465" y="-100"/>
      <point x="444" y="-100" type="qcurve" smooth="yes"/>
      <point x="423" y="-100"/>
      <point x="394" y="-71"/>
      <point x="394" y="-50" type="qcurve" smooth="yes"/>
      <point x="394" y="-29"/>
      <point x="423" y="0"/>
      <point x="444" y="0" type="qcurve" smooth="yes"/>
      <point x="465" y="0"/>
      <point x="494" y="-29"/>
    </contour>
  </outline>
</glyph>
<glyph name="px.ix4.iy0" format="2">
  <advance width="600"/>
  <outline>
    <contour>
      <point x="508" y="50" type="qcurve" smooth="yes"/>
      <point x="508" y="29"/>
      <point x="479" y="0"/>
      <point x="458" y="0" type="qcurve" smooth="yes"/>
      <point x="437" y="0"/>
      <point x="408" y="29"/>
      <point x="408" y="50" type="qcurve" smooth="yes"/>
      <point x="408" y="71"/>
      <point x="437" y="100"/>
      <point x="458" y="100" type="qcurve" smooth="yes"/>
      <point x="479" y="100"/>
      <point x="508" y="71"/>
    </contour>
  </outline>
</glyph>
<glyph name="px.ix4.iy1" format="2">
  <advance width="600"/>
  <outline>
    <contour>
      <point x="522" y="150" type="qcurve" smooth="yes"/>
      <point x="522" y="129"/>
      <point x="493" y="100"/>
      <point x="472" y="100" type="qcurve" smooth="yes"/>
      <point x="451" y="100"/>
      <point x="422" y="129"/>
      <point x="422" y="150" type="qcurve" smooth="yes"/>
      <point x="422" y="171"/>
      <point x="451" y="200"/>
      <point x="472" y="200" type="qcurve" smooth="yes"/>
      <point x="493" y="200"/>
      <point x="522" y="171"/>
    </contour>
  </outline>
</glyph>
<glyph name="px.ix4.iy2" format="2">
  <advance width="600"/>
  <outline>
    <contour>
      <point x="536" y="250" type="qcurve" smooth="yes"/>
      <point x="536" y="229"/>
      <point x="507" y="200"/>
      <point x="486" y="200" type="qcurve" smooth="yes"/>
      <point x="465" y="200"/>
      <point x="436" y="229"/>
      <point x="436" y="250" type="qcurve" smooth="yes"/>
      <point x="436" y="271"/>
      <point x="465" y="300"/>
      <point x="486" y="300" type="qcurve" smooth="yes"/>
      <point x="507" y="300"/>
      <point x="536" y="271"/>
    </contour>
  </outline>
</glyph>
<glyph name="px.ix4.iy3" format="2">
  <advance width="600"/>
  <outline>
    <contour>
      <point x="550" y="350" type="qcurve" smooth="yes"/>
      <point x="550" y="329"/>
      <point x="521" y="300"/>
      <point x="500" y="300" type="qcurve" smooth="yes"/>
      <point x="479" y="300"/>
      <point x="450" y="329"/>
      <point x="450" y="350" type="qcurve" smooth="yes"/>
      <point x="450" y="371"/>
      <point x="479" y="400"/>
      <point x="500" y="400" type="qcurve" smooth="yes"/>
      <point x="521" y="400"/>
      <point x="550" y="371"/>
    </contour>
  </outline>
</glyph>
<glyph name="px.ix4.iy4" format="2">
  <advance width="600"/>
  <outline>
    <contour>
      <point x="564" y="450" type="qcurve" smooth="yes"/>
      <point x="564" y="429"/>
      <point x="535" y="400"/>
      <point x="514" y="400" type="qcurve" smooth="yes"/>
      <point x="493" y="400"/>
      <point x="464" y="429"/>
      <point x="464" y="450" type="qcurve" smooth="yes"/>
      <point x="464" y="471"/>
      <point x="493" y="500"/>
      <point x="514" y="500" type="qcurve" smooth="yes"/>
      <point x="535" y="500"/>
      <point x="564" y="471"/>
    </contour>
  </outline>
</glyph>
<glyph name="px.ix4.iy5" format="2">
  <advance width="600"/>
  <outline>
    <contour>
      <point x="578" y="550" type="qcurve" smooth="yes"/>
      <point x="578" y="529"/>
      <point x="549" y="500"/>
      <point x="528" y="500" type="qcurve" smooth="yes"/>
      <point x="507" y="500"/>
      <point x="478" y="529"/>
      <point x="478" y="550" type="qcurve" smooth="yes"/>
      <point x="478" y="571"/>
      <point x="507" y="600"/>
      <point x="528" y="600" type="qcurve" smooth="yes"/>
      <point x="549" y="600"/>
      <point x="578" y="571"/>
    </contour>
  </outline>
</glyph>
<glyph name="px.ix4.iy6" format="2">
  <advance width="600"/>
  <outline>
    <contour>
      <point x="592" y="650" type="qcurve" smooth="yes"/>
      <point x="592" y="629"/>
      <point x="563" y="600"/>
      <point x="542" y="600" type="qcurve" smooth="yes"/>
      <point x="521" y="600"/>
      <point x="492" y="629"/>
      <point x="492" y="650" type="qcurve" smooth="yes"/>
      <point x="492" y="671"/>
      <point x="521" y="700"/>
      <point x="542" y="700" type="qcurve" smooth="yes"/>
      <point x="563" y="700"/>
      <point x="592" y="671"/>
    </contour>
  </outline>
</glyph>
<glyph name="px.ix5.iy-1" format="2">
  <advance width="600"/>
  <outline>
    <contour>
      <point x="594" y="-50" type="qcurve" smooth="yes"/>
      <point x="594" y="-71"/>
      <point x="565" y="-100"/>
      <point x="544" y="-100" type="qcurve" smooth="yes"/>
      <point x="523" y="-100"/>
      <point x="494" y="-71"/>
      <point x="494" y="-50" type="qcurve" smooth="yes"/>
      <point x="494" y="-29"/>
      <point x="523" y="0"/>
      <point x="544" y="0" type="qcurve" smooth="yes"/>
      <point x="565" y="0"/>
      <point x="594" y="-29"/>
    </contour>
  </outline>
</glyph>
<glyph name="px.ix5.iy0" format="2">
  <advance width="600"/>
  <outline>
    <contour>
      <point x="608" y="50" type="qcurve" smooth="yes"/>
      <point x="608" y="29"/>
      <point x="579" y="0"/>
      <point x="558" y="0" type="qcurve" smooth="yes"/>
      <point x="537" y="0"/>
      <point x="508" y="29"/>
      <point x="508" y="50" type="qcurve" smooth="yes"/>
      <point x="508" y="71"/>
      <point x="537" y="100"/>
      <point x="558" y="100" type="qcurve" smooth="yes"/>
      <point x="579" y="100"/>
      <point x="608" y="71"/>
    </contour>
  </outline>
</glyph>
<glyph name="px.ix5.iy1" format="2">
  <advance width="600"/>
  <outline>
    <contour>
      <point x="622" y="150" type="qcurve" smooth="yes"/>
      <point x="622" y="129"/>
      <point x="593" y="100"/>
      <point x="572" y="100" type="qcurve" smooth="yes"/>
      <point x="551" y="100"/>
      <point x="522" y="129"/>
      <point x="522" y="150" type="qcurve" smooth="yes"/>
      <point x="522" y="171"/>
      <point x="551" y="200"/>
      <point x="572" y="200" type="qcurve" smooth="yes"/>
      <point x="593" y="200"/>
      <point x="622" y="171"/>
    </contour>
  </outline>
</glyph>
<glyph name="px.ix5.iy2" format="2">
  <advance width="600"/>
  <outline>
    <contour>
      <point x="636" y="250" type="qcurve" smooth="yes"/>
      <point x="636" y="229"/>
      <point x="607" y="200"/>
      <point x="586" y="200" type="qcurve" smooth="yes"/>
      <point x="565" y="200"/>
      <point x="536" y="229"/>
      <point x="536" y="250" type="qcurve" smooth="yes"/>
      <point x="536" y="271"/>
      <point x="565" y="300"/>
      <point x="586" y="300" type="qcurve" smooth="yes"/>
      <point x="607" y="300"/>
      <point x="636" y="271"/>
    </contour>
  </outline>
</glyph>
<glyph name="px.ix5.iy3" format="2">
  <advance width="600"/>
  <outline>
    <contour>
      <point x="650" y="350" type="qcurve" smooth="yes"/>
      <point x="650" y="329"/>
      <point x="621" y="300"/>
      <point x="600" y="300" type="qcurve" smooth="yes"/>
      <point x="579" y="300"/>
      <point x="550" y="329"/>
      <point x="550" y="350" type="qcurve" smooth="yes"/>
      <point x="550" y="371"/>
      <point x="579" y="400"/>
      <point x="600" y="400" type="qcurve" smooth="yes"/>
      <point x="621" y="400"/>
      <point x="650" y="371"/>
    </contour>
  </outline>
</glyph>
<glyph name="px.ix5.iy4" format="2">
  <advance width="600"/>
  <outline>
    <contour>
      <point x="664" y="450" type="qcurve" smooth="yes"/>
      <point x="664" y="429"/>
      <point x="635" y="400"/>
      <point x="614" y="400" type="qcurve" smooth="yes"/>
      <point x="593" y="400"/>
      <point x="564" y="429"/>
      <point x="564" y="450" type="qcurve" smooth="yes"/>
      <point x="564" y="471"/>
      <point x="593" y="500"/>
      <point x="614" y="500" type="qcurve" smooth="yes"/>
      <point x="635" y="500"/>
      <point x="664" y="471"/>
    </contour>
  </outline>
</glyph>
<glyph name="px.ix5.iy5" format="2">
  <advance width="600"/>
  <outline>
    <contour>
      <point x="678" y="550" type="qcurve" smooth="yes"/>
      <point x="678" y="529"/>
      <point x="649" y="500"/>
      <point x="628" y="500" type="qcurve" smooth="yes"/>
      <point x="607" y="500"/>
      <point x="578" y="529"/>
      <point x="578" y="550" type="qcurve" smooth="yes"/>
      <point x="578" y="571"/>
      <point x="607" y="600"/>
      <point x="628" y="600" type="qcurve" smooth="yes"/>
      <point x="649" y="600"/>
      <point x="678" y="571"/>
    </contour>
  </outline>
</glyph>
<glyph name="px.ix5.iy6" format="2">
  <advance width="600"/>
  <outline>
    <contour>
      <point x="692" y="650" type="qcurve" smooth="yes"/>
      <point x="692" y="629"/>
      <point x="663" y="600"/>
      <point x="642" y="600" type="qcurve" smooth="yes"/>
      <point x="621" y="600"/>
      <point x="592" y="629"/>
      <point x="592" y="650" type="qcurve" smooth="yes"/>
      <point x="592" y="671"/>
      <point x="621" y="700"/>
      <point x="642" y="700" type="qcurve" smooth="yes"/>
      <point x="663" y="700"/>
      <point x="692" y="671"/>
    </contour>
  </outline>
</glyph>
